<?xml version="1.0" encoding="UTF-8"?>
<!DOCTYPE svg PUBLIC "-//W3C//DTD SVG 1.1//EN" "http://www.w3.org/Graphics/SVG/1.1/DTD/svg11.dtd">
<!-- Creator: CorelDRAW X7 -->
<svg xmlns="http://www.w3.org/2000/svg" xml:space="preserve" width="800px" height="800px" version="1.1" style="shape-rendering:geometricPrecision; text-rendering:geometricPrecision; image-rendering:optimizeQuality; fill-rule:evenodd; clip-rule:evenodd"
viewBox="0 0 800 800"
 xmlns:xlink="http://www.w3.org/1999/xlink">
 <defs>
  <style type="text/css">
   <![CDATA[
    .fil0 {fill:#4CC75E}
   ]]>
  </style>
 </defs>
 <g id="Layer_x0020_1">
  <metadata id="CorelCorpID_0Corel-Layer"/>
  <g id="_1645563572752">
   <path class="fil0" d="M627 283c-82,0 -165,2 -247,2 -74,0 -139,-2 -187,62 -49,63 -85,184 -114,260 -5,14 -10,31 -16,46 -7,19 -20,36 -1,40 89,18 115,6 184,-49 54,-43 53,-124 82,-168 7,-11 299,43 299,-193z"/>
   <path class="fil0" d="M450 67c-17,1 -33,3 -48,5 -90,12 -157,96 -157,187 69,0 283,6 336,-7 86,-21 139,-99 160,-185l-291 0z"/>
  </g>
 </g>
</svg>
